<?xml version="1.0" standalone="no"?>
<!DOCTYPE svg PUBLIC "-//W3C//DTD SVG 20010904//EN"
 "http://www.w3.org/TR/2001/REC-SVG-20010904/DTD/svg10.dtd">
<svg version="1.0" xmlns="http://www.w3.org/2000/svg"
 width="1024.000000pt" height="1024.000000pt" viewBox="0 0 1024.000000 1024.000000"
 preserveAspectRatio="xMidYMid meet">
<metadata>
Created by potrace 1.16, written by Peter Selinger 2001-2019
</metadata>
<g transform="translate(0.000000,1024.000000) scale(0.100000,-0.100000)"
fill="#000000" stroke="none">
<path d="M4890 9020 c-446 -29 -868 -127 -1260 -290 -528 -220 -936 -493
-1310 -876 -450 -461 -750 -950 -944 -1537 -73 -221 -125 -463 -162 -752 -26
-198 -26 -709 -1 -915 93 -766 344 -1384 795 -1965 347 -446 742 -790 1210
-1053 884 -499 1845 -633 2802 -392 830 209 1601 710 2142 1391 463 584 735
1235 834 1999 22 170 30 606 15 796 -53 667 -267 1285 -634 1833 -547 818
-1353 1392 -2311 1646 -341 90 -828 138 -1176 115z m546 -245 c444 -42 822
-146 1221 -335 402 -191 719 -415 1029 -724 275 -276 453 -506 631 -816 250
-435 406 -935 453 -1458 19 -199 8 -645 -19 -842 -48 -342 -132 -657 -249
-940 l-48 -115 -1351 -3 -1350 -2 -65 49 c-75 57 -132 119 -194 212 -117 176
-163 364 -185 756 -13 228 -6 489 16 616 49 279 214 491 467 598 153 66 348
78 618 38 111 -16 204 -23 327 -23 l172 -1 27 26 c34 35 37 89 6 122 -22 23
-30 24 -205 30 -149 5 -430 36 -442 49 -2 2 27 28 63 58 183 152 306 394 319
626 7 123 1 149 -37 169 -44 22 -87 19 -115 -10 -20 -20 -25 -34 -25 -78 0
-174 -76 -369 -190 -491 -119 -126 -232 -194 -460 -276 -280 -101 -417 -180
-559 -321 l-82 -83 3 440 c4 483 4 482 73 645 44 104 95 178 198 286 74 79 87
97 87 126 0 46 -40 87 -85 87 -71 0 -262 -200 -342 -357 l-46 -92 -22 53 c-36
88 -114 196 -208 288 -125 122 -167 138 -224 85 -16 -14 -23 -32 -23 -59 0
-34 8 -46 84 -123 131 -131 212 -265 259 -427 19 -68 21 -103 24 -516 l4 -443
-88 88 c-147 146 -279 224 -543 320 -242 87 -327 137 -451 264 -122 124 -192
285 -209 483 -6 77 -10 91 -31 107 -35 27 -94 25 -124 -6 -23 -22 -25 -32 -25
-107 0 -254 161 -574 353 -703 l50 -34 -34 -6 c-151 -26 -260 -37 -419 -42
-168 -5 -187 -7 -207 -26 -32 -29 -31 -87 1 -124 l24 -28 169 1 c119 0 215 7
328 24 379 54 604 13 804 -147 178 -141 272 -324 300 -581 21 -198 11 -615
-20 -817 -48 -314 -168 -539 -363 -682 l-58 -43 -1343 0 -1343 0 -46 106
c-123 279 -207 601 -263 1004 -25 181 -25 742 0 920 39 279 79 456 159 700
255 782 839 1521 1545 1956 522 322 1081 506 1688 557 115 10 450 5 591 -8z
m-2546 -5446 c0 -14 -152 -53 -235 -60 -83 -7 -92 -10 -117 -38 -35 -39 -36
-80 -4 -118 24 -27 27 -28 118 -27 176 1 332 60 470 179 l74 63 527 4 c290 2
527 1 527 -1 0 -2 -13 -20 -29 -40 l-30 -37 27 -40 c53 -80 70 -96 87 -87 25
14 126 117 160 161 26 35 36 41 73 44 24 2 45 1 48 -1 4 -5 -67 -142 -149
-286 -61 -107 -141 -191 -217 -228 -30 -14 -116 -42 -191 -61 -74 -18 -158
-45 -185 -59 -78 -40 -152 -106 -204 -184 -69 -102 -83 -159 -84 -325 -1 -131
0 -137 23 -162 39 -42 116 -33 142 16 6 11 14 73 19 137 8 137 34 203 106 275
55 56 122 88 244 116 250 57 368 140 499 352 66 105 177 317 198 376 l11 32
103 0 102 0 -6 -192 c-7 -221 -16 -265 -79 -359 -71 -107 -170 -197 -310 -284
-137 -85 -209 -148 -267 -235 -70 -104 -101 -216 -101 -367 0 -114 22 -152 88
-153 25 0 41 8 63 31 25 27 29 39 29 93 0 132 54 269 138 353 27 26 102 80
168 118 85 50 142 93 201 151 l83 81 0 -92 c0 -187 41 -290 171 -430 89 -96
103 -122 114 -210 9 -75 26 -109 63 -124 38 -16 77 -5 103 28 19 23 21 37 17
126 -4 129 -29 183 -139 301 -131 141 -123 110 -129 519 -3 193 -5 351 -4 353
1 2 14 -18 28 -43 47 -79 121 -159 235 -253 149 -124 176 -165 205 -315 34
-169 104 -255 286 -353 63 -34 125 -65 138 -69 49 -15 112 37 112 92 0 40 -39
81 -117 123 -165 90 -203 135 -228 263 -30 158 -77 242 -193 345 -211 188
-279 269 -342 404 -32 70 -38 92 -27 96 4 1 60 2 125 2 l118 0 22 -46 c41 -84
135 -217 205 -291 84 -88 163 -142 322 -220 94 -45 133 -71 181 -118 85 -84
111 -143 129 -291 17 -133 52 -222 120 -301 31 -37 42 -43 75 -43 26 0 48 8
66 24 40 34 37 77 -11 155 -33 55 -39 76 -47 150 -22 214 -58 308 -160 417
-80 86 -158 140 -289 202 -125 60 -208 119 -271 193 -44 51 -118 158 -118 169
0 3 17 4 37 3 21 -1 90 -2 154 -2 l116 -1 58 -75 c92 -120 210 -207 334 -245
49 -16 92 -20 192 -20 92 0 140 -4 165 -15 19 -8 74 -55 122 -103 102 -105
156 -131 287 -139 127 -8 312 47 398 118 32 26 37 36 37 73 0 31 -6 48 -22 64
-42 38 -69 37 -165 -6 -155 -71 -264 -78 -341 -22 -21 15 -62 55 -91 88 -33
38 -74 72 -113 92 -60 32 -67 33 -222 41 -168 8 -196 13 -261 47 -41 21 -125
88 -125 100 0 4 452 7 1005 7 553 0 1005 -3 1005 -6 0 -7 -132 -229 -178 -299
-536 -815 -1440 -1424 -2392 -1610 -218 -42 -315 -52 -582 -57 -288 -6 -402 2
-653 43 -436 71 -853 226 -1267 470 -477 281 -893 674 -1207 1139 -80 117
-191 301 -191 315 0 3 229 5 510 5 280 0 510 -3 510 -6z"/>
<path d="M5023 8307 c-103 -109 -160 -199 -205 -327 -29 -80 -36 -273 -13
-359 25 -96 70 -178 135 -243 89 -89 90 -88 88 110 -3 178 8 249 45 311 l20
34 23 -26 c37 -43 54 -146 54 -326 0 -90 4 -161 9 -161 14 0 93 68 119 104 36
47 77 134 97 201 20 72 23 219 5 296 -18 78 -81 209 -136 281 -49 65 -153 178
-165 178 -4 0 -38 -33 -76 -73z"/>
<path d="M3723 7943 c-26 -10 -11 -134 34 -283 40 -135 96 -234 183 -320 118
-119 232 -167 374 -158 76 5 171 39 164 59 -2 7 -48 39 -101 73 -159 100 -256
195 -260 253 -2 26 1 28 28 25 48 -5 185 -76 274 -142 44 -33 84 -60 87 -60 8
0 -5 86 -23 150 -55 200 -245 351 -500 395 -81 14 -234 19 -260 8z"/>
<path d="M6235 7939 c-159 -23 -289 -83 -385 -177 -94 -94 -150 -213 -150
-324 l0 -48 70 53 c93 71 175 119 244 142 74 25 87 14 57 -49 -35 -71 -155
-173 -304 -260 -27 -15 -47 -33 -45 -39 8 -24 82 -50 154 -55 139 -9 274 47
384 159 78 79 122 150 167 270 41 110 80 319 61 331 -17 10 -175 8 -253 -3z"/>
<path d="M2716 7071 c-18 -29 35 -232 87 -336 34 -69 107 -161 157 -199 87
-66 145 -89 240 -94 86 -4 168 13 161 33 -1 6 -42 39 -89 75 -98 74 -162 150
-162 194 0 28 1 28 40 23 49 -6 149 -66 218 -131 49 -46 52 -48 52 -24 0 101
-47 212 -127 298 -105 114 -224 160 -434 167 -98 4 -138 2 -143 -6z"/>
<path d="M7221 7069 c-248 -48 -411 -206 -428 -411 l-6 -73 64 58 c63 57 185
127 220 127 25 0 30 -12 18 -53 -13 -47 -80 -119 -173 -187 -41 -30 -76 -58
-76 -61 -1 -23 111 -39 190 -28 176 25 321 156 401 364 40 101 70 245 57 263
-12 14 -196 15 -267 1z"/>
<path d="M4146 6738 c-10 -30 -20 -96 -23 -153 -4 -86 -2 -108 16 -156 36 -94
112 -165 210 -194 28 -8 27 -5 -13 90 -26 60 -36 165 -17 165 21 0 83 -78 114
-142 17 -37 35 -67 38 -67 10 -1 39 68 45 107 8 52 -19 153 -56 206 -60 88
-181 175 -266 192 -29 6 -31 4 -48 -48z"/>
<path d="M5965 6773 c-159 -65 -267 -191 -281 -330 -7 -60 11 -138 36 -167 5
-4 26 30 47 76 39 82 94 145 115 132 16 -10 2 -100 -27 -174 -14 -35 -25 -67
-25 -71 0 -15 76 14 118 44 92 66 139 179 129 312 -7 93 -35 189 -57 192 -8 1
-33 -5 -55 -14z"/>
<path d="M2612 6209 c-120 -18 -287 -96 -383 -179 -55 -48 -53 -50 67 -147
273 -222 555 -252 749 -81 55 48 48 54 -67 61 -115 7 -186 20 -237 45 -50 24
-48 38 6 58 39 15 76 19 191 19 78 0 142 2 142 5 0 16 -74 112 -102 133 -59
44 -136 77 -205 87 -77 11 -75 11 -161 -1z"/>
<path d="M7358 6191 c-31 -10 -71 -28 -90 -39 -53 -33 -138 -130 -138 -157 0
-7 46 -11 138 -10 110 0 146 -4 185 -19 34 -13 47 -23 45 -35 -5 -26 -101 -52
-240 -64 -85 -7 -128 -15 -128 -23 0 -20 80 -85 136 -111 166 -76 354 -46 554
88 47 32 109 79 139 106 64 58 63 62 -25 128 -77 59 -172 108 -258 134 -89 27
-235 28 -318 2z"/>
<path d="M3987 5640 c-164 -42 -323 -206 -392 -407 -27 -76 -52 -240 -41 -268
6 -16 17 -17 129 -11 252 14 397 65 511 180 75 76 117 162 124 257 3 48 1 69
-7 69 -6 0 -53 -31 -104 -69 -112 -84 -202 -131 -251 -131 -31 0 -36 3 -36 24
0 54 122 169 282 265 31 19 54 39 51 44 -23 37 -189 66 -266 47z"/>
<path d="M6051 5641 c-44 -12 -111 -42 -111 -51 0 -4 44 -34 97 -65 119 -72
256 -201 251 -237 -8 -56 -100 -24 -273 96 -60 42 -116 76 -123 76 -25 0 -10
-129 23 -197 61 -125 205 -236 360 -277 73 -19 314 -41 351 -32 27 7 27 8 21
76 -21 249 -156 479 -338 575 -60 31 -82 38 -147 41 -43 2 -92 -1 -111 -5z"/>
<path d="M3225 5561 c-124 -33 -233 -144 -275 -279 -27 -88 -27 -139 2 -147
33 -11 195 5 260 25 142 44 248 152 248 253 0 17 -2 17 -30 -3 -82 -58 -210
-91 -210 -53 0 24 76 92 155 137 l67 40 -28 14 c-33 17 -145 25 -189 13z"/>
<path d="M6803 5559 c-41 -12 -42 -25 -2 -47 108 -58 199 -146 176 -169 -12
-11 -114 20 -171 53 -32 19 -61 33 -63 30 -10 -10 20 -89 50 -128 72 -95 169
-142 322 -158 99 -10 154 -5 161 15 8 20 -24 143 -53 201 -34 70 -114 152
-178 183 -56 28 -184 38 -242 20z"/>
<path d="M3605 3143 c-177 -25 -321 -122 -432 -291 -94 -142 -169 -179 -343
-168 -106 6 -107 6 -134 -20 -37 -37 -36 -91 2 -127 43 -42 154 -62 251 -47
139 22 245 72 313 148 18 20 59 76 90 123 41 61 73 97 111 123 86 59 126 67
337 64 150 -2 193 1 225 14 22 9 53 21 68 27 l29 11 -31 35 c-17 19 -41 53
-53 74 -23 39 -23 40 -68 33 -56 -9 -117 -9 -240 -1 -52 4 -108 5 -125 2z"/>
<path d="M7043 2440 c-50 -21 -57 -87 -13 -131 23 -24 34 -28 57 -23 38 9 61
33 69 70 11 55 -58 107 -113 84z"/>
<path d="M3152 2334 c-16 -11 -22 -25 -22 -54 0 -29 6 -43 22 -54 52 -37 118
-3 118 60 0 38 -29 64 -70 64 -14 0 -36 -7 -48 -16z"/>
<path d="M4787 1940 c-53 -42 -25 -130 41 -130 58 0 96 85 55 123 -31 28 -66
30 -96 7z"/>
</g>
</svg>
